name Walk5.mot
datacolumns 19
datarows 27
range 1.51200000 1.53800000
endheader

                time	   L_ground_force_vx	   L_ground_force_vy	   L_ground_force_vz	   L_ground_force_px	   L_ground_force_py	   L_ground_force_pz	   R_ground_force_vx	   R_ground_force_vy	   R_ground_force_vz	   R_ground_force_px	   R_ground_force_py	   R_ground_force_pz	   L_ground_torque_x	   L_ground_torque_y	   L_ground_torque_z	   R_ground_torque_x	   R_ground_torque_y	   R_ground_torque_z	
          1.51200000	         22.31532314	        628.61020640	         34.79350297	         -0.31802488	          0.00000000	         -0.06428643	          0.00000000	          0.00000000	          0.00000000	          0.00000000	          0.00000000	          0.00000000	          0.00000000	         -0.78114562	          0.00000000	          0.00000000	          0.00000000	          0.00000000	
          1.51300000	         22.39958348	        629.13751544	         34.79931865	         -0.31729262	          0.00000000	         -0.06431002	          0.00000000	          0.00000000	          0.00000000	          0.00000000	          0.00000000	          0.00000000	          0.00000000	         -0.79842829	          0.00000000	          0.00000000	          0.00000000	          0.00000000	
          1.51400000	         22.48874628	        629.73917366	         34.79772602	         -0.31658663	          0.00000000	         -0.06429758	          0.00000000	          0.00000000	          0.00000000	          0.00000000	          0.00000000	          0.00000000	          0.00000000	         -0.81844082	          0.00000000	          0.00000000	          0.00000000	          0.00000000	
          1.51500000	         22.59071911	        630.38959209	         34.79612210	         -0.31593095	          0.00000000	         -0.06422554	          0.00000000	          0.00000000	          0.00000000	          0.00000000	          0.00000000	          0.00000000	          0.00000000	         -0.83702585	          0.00000000	          0.00000000	          0.00000000	          0.00000000	
          1.51600000	         22.69432418	        631.06687392	         34.80210361	         -0.31531970	          0.00000000	         -0.06412376	          0.00000000	          0.00000000	          0.00000000	          0.00000000	          0.00000000	          0.00000000	          0.00000000	         -0.85348797	          0.00000000	          0.00000000	          0.00000000	          0.00000000	
          1.51700000	         22.79174133	        631.74374130	         34.81096993	         -0.31474271	          0.00000000	         -0.06405032	          0.00000000	          0.00000000	          0.00000000	          0.00000000	          0.00000000	          0.00000000	          0.00000000	         -0.86878028	          0.00000000	          0.00000000	          0.00000000	          0.00000000	
          1.51800000	         22.88585982	        632.39598540	         34.81988392	         -0.31418781	          0.00000000	         -0.06402879	          0.00000000	          0.00000000	          0.00000000	          0.00000000	          0.00000000	          0.00000000	          0.00000000	         -0.88163708	          0.00000000	          0.00000000	          0.00000000	          0.00000000	
          1.51900000	         22.97873621	        633.02291705	         34.84091104	         -0.31362588	          0.00000000	         -0.06404443	          0.00000000	          0.00000000	          0.00000000	          0.00000000	          0.00000000	          0.00000000	          0.00000000	         -0.89250154	          0.00000000	          0.00000000	          0.00000000	          0.00000000	
          1.52000000	         23.07430805	        633.63609802	         34.88537626	         -0.31302798	          0.00000000	         -0.06409071	          0.00000000	          0.00000000	          0.00000000	          0.00000000	          0.00000000	          0.00000000	          0.00000000	         -0.90581026	          0.00000000	          0.00000000	          0.00000000	          0.00000000	
          1.52100000	         23.18342763	        634.24100062	         34.94704686	         -0.31239424	          0.00000000	         -0.06417866	          0.00000000	          0.00000000	          0.00000000	          0.00000000	          0.00000000	          0.00000000	          0.00000000	         -0.92436605	          0.00000000	          0.00000000	          0.00000000	          0.00000000	
          1.52200000	         23.31375660	        634.84516110	         35.01053807	         -0.31174462	          0.00000000	         -0.06429767	          0.00000000	          0.00000000	          0.00000000	          0.00000000	          0.00000000	          0.00000000	          0.00000000	         -0.94688469	          0.00000000	          0.00000000	          0.00000000	          0.00000000	
          1.52300000	         23.46707309	        635.47283918	         35.06825590	         -0.31109421	          0.00000000	         -0.06440335	          0.00000000	          0.00000000	          0.00000000	          0.00000000	          0.00000000	          0.00000000	          0.00000000	         -0.97281049	          0.00000000	          0.00000000	          0.00000000	          0.00000000	
          1.52400000	         23.64967764	        636.15828838	         35.12691290	         -0.31045237	          0.00000000	         -0.06445613	          0.00000000	          0.00000000	          0.00000000	          0.00000000	          0.00000000	          0.00000000	          0.00000000	         -1.00243759	          0.00000000	          0.00000000	          0.00000000	          0.00000000	
          1.52500000	         23.87245253	        636.92789738	         35.20213887	         -0.30982349	          0.00000000	         -0.06445299	          0.00000000	          0.00000000	          0.00000000	          0.00000000	          0.00000000	          0.00000000	          0.00000000	         -1.03111701	          0.00000000	          0.00000000	          0.00000000	          0.00000000	
          1.52600000	         24.13673809	        637.78416571	         35.30361791	         -0.30919596	          0.00000000	         -0.06442369	          0.00000000	          0.00000000	          0.00000000	          0.00000000	          0.00000000	          0.00000000	          0.00000000	         -1.05173410	          0.00000000	          0.00000000	          0.00000000	          0.00000000	
          1.52700000	         24.42847319	        638.70047222	         35.42410691	         -0.30855540	          0.00000000	         -0.06440381	          0.00000000	          0.00000000	          0.00000000	          0.00000000	          0.00000000	          0.00000000	          0.00000000	         -1.06280867	          0.00000000	          0.00000000	          0.00000000	          0.00000000	
          1.52800000	         24.73176073	        639.63188709	         35.54819110	         -0.30791143	          0.00000000	         -0.06440871	          0.00000000	          0.00000000	          0.00000000	          0.00000000	          0.00000000	          0.00000000	          0.00000000	         -1.06721668	          0.00000000	          0.00000000	          0.00000000	          0.00000000	
          1.52900000	         25.04002059	        640.52833986	         35.66962041	         -0.30728656	          0.00000000	         -0.06443305	          0.00000000	          0.00000000	          0.00000000	          0.00000000	          0.00000000	          0.00000000	          0.00000000	         -1.06664950	          0.00000000	          0.00000000	          0.00000000	          0.00000000	
          1.53000000	         25.34841616	        641.35951829	         35.79329949	         -0.30668708	          0.00000000	         -0.06445867	          0.00000000	          0.00000000	          0.00000000	          0.00000000	          0.00000000	          0.00000000	          0.00000000	         -1.06373957	          0.00000000	          0.00000000	          0.00000000	          0.00000000	
          1.53100000	         25.64615678	        642.14854637	         35.92554944	         -0.30610371	          0.00000000	         -0.06446000	          0.00000000	          0.00000000	          0.00000000	          0.00000000	          0.00000000	          0.00000000	          0.00000000	         -1.06484136	          0.00000000	          0.00000000	          0.00000000	          0.00000000	
          1.53200000	         25.92380856	        642.96714620	         36.07102390	         -0.30552834	          0.00000000	         -0.06442167	          0.00000000	          0.00000000	          0.00000000	          0.00000000	          0.00000000	          0.00000000	          0.00000000	         -1.07560960	          0.00000000	          0.00000000	          0.00000000	          0.00000000	
          1.53300000	         26.18508485	        643.89386144	         36.23184881	         -0.30495898	          0.00000000	         -0.06435209	          0.00000000	          0.00000000	          0.00000000	          0.00000000	          0.00000000	          0.00000000	          0.00000000	         -1.09640326	          0.00000000	          0.00000000	          0.00000000	          0.00000000	
          1.53400000	         26.44560624	        644.97343718	         36.40151317	         -0.30439247	          0.00000000	         -0.06428048	          0.00000000	          0.00000000	          0.00000000	          0.00000000	          0.00000000	          0.00000000	          0.00000000	         -1.12257451	          0.00000000	          0.00000000	          0.00000000	          0.00000000	
          1.53500000	         26.71717817	        646.19410118	         36.56713025	         -0.30382034	          0.00000000	         -0.06424416	          0.00000000	          0.00000000	          0.00000000	          0.00000000	          0.00000000	          0.00000000	          0.00000000	         -1.14710737	          0.00000000	          0.00000000	          0.00000000	          0.00000000	
          1.53600000	         27.00069836	        647.51084376	         36.72236343	         -0.30323755	          0.00000000	         -0.06426574	          0.00000000	          0.00000000	          0.00000000	          0.00000000	          0.00000000	          0.00000000	          0.00000000	         -1.16414321	          0.00000000	          0.00000000	          0.00000000	          0.00000000	
          1.53700000	         27.29530460	        648.89641810	         36.87151784	         -0.30264998	          0.00000000	         -0.06433485	          0.00000000	          0.00000000	          0.00000000	          0.00000000	          0.00000000	          0.00000000	          0.00000000	         -1.17233161	          0.00000000	          0.00000000	          0.00000000	          0.00000000	
          1.53800000	         27.60103677	        650.35465656	         37.02062082	         -0.30206787	          0.00000000	         -0.06441199	          0.00000000	          0.00000000	          0.00000000	          0.00000000	          0.00000000	          0.00000000	          0.00000000	         -1.17465492	          0.00000000	          0.00000000	          0.00000000	          0.00000000	
